<mxfile host="app.diagrams.net" modified="2022-09-01T07:57:56.063Z" agent="5.0 (Windows NT 10.0; Win64; x64) AppleWebKit/537.36 (KHTML, like Gecko) Chrome/102.0.0.0 Safari/537.36" etag="0li2KB0ITl5PNDCq4dyI" version="20.2.7" type="github">
  <diagram id="prtHgNgQTEPvFCAcTncT" name="Page-1">
    <mxGraphModel dx="1504" dy="681" grid="1" gridSize="10" guides="1" tooltips="1" connect="1" arrows="1" fold="1" page="1" pageScale="1" pageWidth="827" pageHeight="1169" math="0" shadow="0">
      <root>
        <mxCell id="0" />
        <mxCell id="1" parent="0" />
        <mxCell id="dNxyNK7c78bLwvsdeMH5-11" value="&lt;span style=&quot;text-indent: -21pt; background-color: initial; font-size: 12pt; line-height: 150%; font-family: Wingdings;&quot; lang=&quot;EN-US&quot;&gt;&lt;span style=&quot;font-variant-numeric: normal; font-variant-east-asian: normal; font-weight: normal; font-stretch: normal; font-size: 7pt; line-height: normal; font-family: &amp;quot;Times New Roman&amp;quot;;&quot;&gt;&amp;nbsp;&lt;/span&gt;&lt;/span&gt;&lt;span style=&quot;text-indent: -21pt; background-color: initial; font-size: 12pt; line-height: 150%; font-family: 宋体;&quot;&gt;校园行走最优路径查询系统需求分析&lt;/span&gt;" style="swimlane;html=1;startSize=20;horizontal=1;containerType=tree;glass=0;" parent="1" vertex="1">
          <mxGeometry x="100" y="80" width="800" height="740" as="geometry" />
        </mxCell>
        <mxCell id="DE5LuhOHH-1rla_1CtVf-24" style="edgeStyle=orthogonalEdgeStyle;rounded=0;orthogonalLoop=1;jettySize=auto;html=1;entryX=0.5;entryY=0;entryDx=0;entryDy=0;" edge="1" parent="dNxyNK7c78bLwvsdeMH5-11" source="DE5LuhOHH-1rla_1CtVf-4" target="DE5LuhOHH-1rla_1CtVf-23">
          <mxGeometry relative="1" as="geometry" />
        </mxCell>
        <mxCell id="DE5LuhOHH-1rla_1CtVf-26" style="edgeStyle=orthogonalEdgeStyle;rounded=0;orthogonalLoop=1;jettySize=auto;html=1;entryX=0.5;entryY=0;entryDx=0;entryDy=0;" edge="1" parent="dNxyNK7c78bLwvsdeMH5-11" source="DE5LuhOHH-1rla_1CtVf-4" target="DE5LuhOHH-1rla_1CtVf-25">
          <mxGeometry relative="1" as="geometry" />
        </mxCell>
        <mxCell id="DE5LuhOHH-1rla_1CtVf-4" value="功能性需求" style="rounded=0;whiteSpace=wrap;html=1;" vertex="1" parent="dNxyNK7c78bLwvsdeMH5-11">
          <mxGeometry x="374" y="40" width="120" height="60" as="geometry" />
        </mxCell>
        <mxCell id="DE5LuhOHH-1rla_1CtVf-5" value="" style="edgeStyle=orthogonalEdgeStyle;rounded=0;orthogonalLoop=1;jettySize=auto;html=1;" edge="1" source="DE5LuhOHH-1rla_1CtVf-4" target="DE5LuhOHH-1rla_1CtVf-6" parent="dNxyNK7c78bLwvsdeMH5-11">
          <mxGeometry relative="1" as="geometry" />
        </mxCell>
        <mxCell id="DE5LuhOHH-1rla_1CtVf-35" style="edgeStyle=orthogonalEdgeStyle;rounded=0;orthogonalLoop=1;jettySize=auto;html=1;entryX=1;entryY=0.5;entryDx=0;entryDy=0;" edge="1" parent="dNxyNK7c78bLwvsdeMH5-11" source="DE5LuhOHH-1rla_1CtVf-6" target="DE5LuhOHH-1rla_1CtVf-23">
          <mxGeometry relative="1" as="geometry" />
        </mxCell>
        <mxCell id="DE5LuhOHH-1rla_1CtVf-36" style="edgeStyle=orthogonalEdgeStyle;rounded=0;orthogonalLoop=1;jettySize=auto;html=1;entryX=0;entryY=0.5;entryDx=0;entryDy=0;" edge="1" parent="dNxyNK7c78bLwvsdeMH5-11" source="DE5LuhOHH-1rla_1CtVf-6" target="DE5LuhOHH-1rla_1CtVf-25">
          <mxGeometry relative="1" as="geometry" />
        </mxCell>
        <mxCell id="DE5LuhOHH-1rla_1CtVf-6" value="良好的功能操作界面" style="rounded=0;whiteSpace=wrap;html=1;" vertex="1" parent="dNxyNK7c78bLwvsdeMH5-11">
          <mxGeometry x="374" y="140" width="120" height="60" as="geometry" />
        </mxCell>
        <mxCell id="DE5LuhOHH-1rla_1CtVf-23" value="2D/3D图像显示" style="rounded=0;whiteSpace=wrap;html=1;" vertex="1" parent="dNxyNK7c78bLwvsdeMH5-11">
          <mxGeometry x="210" y="140" width="120" height="60" as="geometry" />
        </mxCell>
        <mxCell id="DE5LuhOHH-1rla_1CtVf-25" value="用户可选择去任意地方" style="rounded=0;whiteSpace=wrap;html=1;" vertex="1" parent="dNxyNK7c78bLwvsdeMH5-11">
          <mxGeometry x="540" y="140" width="120" height="60" as="geometry" />
        </mxCell>
        <mxCell id="DE5LuhOHH-1rla_1CtVf-31" style="edgeStyle=orthogonalEdgeStyle;rounded=0;orthogonalLoop=1;jettySize=auto;html=1;entryX=0.5;entryY=0;entryDx=0;entryDy=0;" edge="1" target="DE5LuhOHH-1rla_1CtVf-32" source="DE5LuhOHH-1rla_1CtVf-25" parent="dNxyNK7c78bLwvsdeMH5-11">
          <mxGeometry relative="1" as="geometry">
            <mxPoint x="534" y="170.05882352941182" as="sourcePoint" />
          </mxGeometry>
        </mxCell>
        <mxCell id="DE5LuhOHH-1rla_1CtVf-32" value="得出最优路径清晰明了" style="rounded=0;whiteSpace=wrap;html=1;" vertex="1" parent="dNxyNK7c78bLwvsdeMH5-11">
          <mxGeometry x="540" y="240" width="120" height="60" as="geometry" />
        </mxCell>
        <mxCell id="DE5LuhOHH-1rla_1CtVf-37" style="edgeStyle=orthogonalEdgeStyle;rounded=0;orthogonalLoop=1;jettySize=auto;html=1;entryX=0.5;entryY=0;entryDx=0;entryDy=0;" edge="1" target="DE5LuhOHH-1rla_1CtVf-38" source="DE5LuhOHH-1rla_1CtVf-32" parent="dNxyNK7c78bLwvsdeMH5-11">
          <mxGeometry relative="1" as="geometry">
            <mxPoint x="600" y="300" as="sourcePoint" />
          </mxGeometry>
        </mxCell>
        <mxCell id="DE5LuhOHH-1rla_1CtVf-38" value="算法设计：最优路径生成" style="rounded=0;whiteSpace=wrap;html=1;" vertex="1" parent="dNxyNK7c78bLwvsdeMH5-11">
          <mxGeometry x="540" y="340" width="120" height="60" as="geometry" />
        </mxCell>
        <mxCell id="DE5LuhOHH-1rla_1CtVf-77" value="非功能性需求" style="rounded=0;whiteSpace=wrap;html=1;" vertex="1" parent="dNxyNK7c78bLwvsdeMH5-11">
          <mxGeometry x="374" y="435" width="120" height="60" as="geometry" />
        </mxCell>
        <mxCell id="DE5LuhOHH-1rla_1CtVf-78" value="" style="edgeStyle=orthogonalEdgeStyle;rounded=0;orthogonalLoop=1;jettySize=auto;html=1;" edge="1" source="DE5LuhOHH-1rla_1CtVf-77" target="DE5LuhOHH-1rla_1CtVf-79" parent="dNxyNK7c78bLwvsdeMH5-11">
          <mxGeometry relative="1" as="geometry" />
        </mxCell>
        <mxCell id="DE5LuhOHH-1rla_1CtVf-79" value="运行平台：Windows" style="rounded=0;whiteSpace=wrap;html=1;" vertex="1" parent="dNxyNK7c78bLwvsdeMH5-11">
          <mxGeometry x="374" y="535" width="120" height="60" as="geometry" />
        </mxCell>
        <mxCell id="DE5LuhOHH-1rla_1CtVf-86" value="" style="edgeStyle=orthogonalEdgeStyle;rounded=0;orthogonalLoop=1;jettySize=auto;html=1;" edge="1" source="DE5LuhOHH-1rla_1CtVf-77" target="DE5LuhOHH-1rla_1CtVf-87" parent="dNxyNK7c78bLwvsdeMH5-11">
          <mxGeometry relative="1" as="geometry" />
        </mxCell>
        <mxCell id="DE5LuhOHH-1rla_1CtVf-87" value="开发语言：C++" style="rounded=0;whiteSpace=wrap;html=1;" vertex="1" parent="dNxyNK7c78bLwvsdeMH5-11">
          <mxGeometry x="210" y="534.9999999999998" width="120" height="60" as="geometry" />
        </mxCell>
        <mxCell id="DE5LuhOHH-1rla_1CtVf-88" value="数据存储" style="rounded=0;whiteSpace=wrap;html=1;" vertex="1" parent="dNxyNK7c78bLwvsdeMH5-11">
          <mxGeometry x="520" y="535" width="120" height="60" as="geometry" />
        </mxCell>
        <mxCell id="DE5LuhOHH-1rla_1CtVf-121" value="" style="edgeStyle=orthogonalEdgeStyle;rounded=0;orthogonalLoop=1;jettySize=auto;html=1;" edge="1" target="DE5LuhOHH-1rla_1CtVf-122" source="DE5LuhOHH-1rla_1CtVf-87" parent="dNxyNK7c78bLwvsdeMH5-11">
          <mxGeometry relative="1" as="geometry">
            <mxPoint x="474" y="545.0000000000002" as="sourcePoint" />
          </mxGeometry>
        </mxCell>
        <mxCell id="DE5LuhOHH-1rla_1CtVf-122" value="开发工具：QT" style="rounded=0;whiteSpace=wrap;html=1;" vertex="1" parent="dNxyNK7c78bLwvsdeMH5-11">
          <mxGeometry x="210" y="634.9999999999998" width="120" height="60" as="geometry" />
        </mxCell>
        <mxCell id="DE5LuhOHH-1rla_1CtVf-82" style="edgeStyle=orthogonalEdgeStyle;rounded=0;orthogonalLoop=1;jettySize=auto;html=1;" edge="1" parent="1" source="DE5LuhOHH-1rla_1CtVf-77">
          <mxGeometry relative="1" as="geometry">
            <mxPoint x="680" y="610" as="targetPoint" />
          </mxGeometry>
        </mxCell>
      </root>
    </mxGraphModel>
  </diagram>
</mxfile>
